<svg width="24" height="32" viewBox="0 0 24 32" fill="none" xmlns="http://www.w3.org/2000/svg">
<path d="M21.7199 14.5782C21.3257 14.0448 20.8458 13.5826 20.4001 13.1204C19.2518 12.0537 17.9492 11.2892 16.8522 10.1692C14.2984 7.57355 13.7328 3.28898 15.3611 0C13.7328 0.408901 12.3102 1.33337 11.0933 2.34673C6.65408 6.04462 4.90583 12.5692 6.99687 18.1694C7.06543 18.3472 7.13399 18.525 7.13399 18.7561C7.13399 19.1472 6.8769 19.5028 6.5341 19.645C6.13989 19.8228 5.72853 19.7161 5.40288 19.4317C5.3056 19.3471 5.22425 19.2447 5.16292 19.1294C3.22613 16.5871 2.91762 12.9426 4.22024 10.027C1.35791 12.4448 -0.201809 16.5338 0.0210077 20.3917C0.123846 21.2806 0.226684 22.1695 0.518059 23.0584C0.758016 24.1251 1.22079 25.1918 1.73498 26.1341C3.58607 29.2097 6.7912 31.4142 10.2363 31.8587C13.9042 32.3387 17.8292 31.6453 20.6401 29.0142C23.7767 26.063 24.8736 21.3339 23.2625 17.2805L23.0396 16.8183C22.6797 16.0005 21.7199 14.5782 21.7199 14.5782ZM16.3037 25.7785C15.8238 26.2052 15.0354 26.6674 14.4184 26.8452C12.4987 27.5563 10.5791 26.5608 9.44785 25.3874C11.4875 24.8896 12.7044 23.3251 13.0643 21.7428C13.3557 20.3206 12.8072 19.1472 12.5844 17.7783C12.3787 16.4627 12.413 15.3427 12.8758 14.116C13.2015 14.7915 13.5442 15.4671 13.9556 16.0005C15.2754 17.7783 17.3493 18.5605 17.7949 20.9784C17.8635 21.2273 17.8977 21.4762 17.8977 21.7428C17.9492 23.2007 17.3321 24.8007 16.3037 25.7785Z" fill="white"/>
</svg>
